<svg width="20" height="20" viewBox="0 0 20 20" fill="none" xmlns="http://www.w3.org/2000/svg">
<path fill-rule="evenodd" clip-rule="evenodd" d="M10 17.2C13.9764 17.2 17.2 13.9764 17.2 10C17.2 6.02355 13.9764 2.8 10 2.8C6.02355 2.8 2.8 6.02355 2.8 10C2.8 13.9764 6.02355 17.2 10 17.2ZM10 19C14.9706 19 19 14.9706 19 10C19 5.02944 14.9706 1 10 1C5.02944 1 1 5.02944 1 10C1 14.9706 5.02944 19 10 19Z" fill="currentColor" fill-opacity="0.15"/>
<mask id="path-2-inside-1_206_12674" fill="white">
<path d="M17.2 10C17.2 13.9764 13.9765 17.2 10 17.2C8.74221 17.2 7.55972 16.8775 6.53076 16.3106L5.66425 17.8868C7.03466 18.6402 8.57773 19.0235 10.1414 18.9989C11.7051 18.9743 13.2353 18.5427 14.5814 17.7467C15.9275 16.9506 17.0429 15.8175 17.8177 14.4591C18.5925 13.1007 19 11.5639 19 10H17.2Z"/>
</mask>
<path d="M17.2 10C17.2 13.9764 13.9765 17.2 10 17.2C8.74221 17.2 7.55972 16.8775 6.53076 16.3106L5.66425 17.8868C7.03466 18.6402 8.57773 19.0235 10.1414 18.9989C11.7051 18.9743 13.2353 18.5427 14.5814 17.7467C15.9275 16.9506 17.0429 15.8175 17.8177 14.4591C18.5925 13.1007 19 11.5639 19 10H17.2Z" fill="currentColor"/>
<path d="M17.2 10V5H12.2V10H17.2ZM6.53076 16.3106L8.94346 11.9312L4.56016 9.51634L2.14922 13.9018L6.53076 16.3106ZM5.66425 17.8868L1.28271 15.478L-1.12606 19.8595L3.25548 22.2683L5.66425 17.8868ZM10.1414 18.9989L10.0629 13.9995H10.0629L10.1414 18.9989ZM14.5814 17.7467L12.0362 13.443L12.0362 13.443L14.5814 17.7467ZM19 10H24V5H19V10ZM10 22.2C16.7379 22.2 22.2 16.7379 22.2 10H12.2C12.2 11.215 11.2151 12.2 10 12.2V22.2ZM4.11805 20.6899C5.86723 21.6536 7.87732 22.2 10 22.2V12.2C9.6071 12.2 9.2522 12.1013 8.94346 11.9312L4.11805 20.6899ZM10.0458 20.2955L10.9123 18.7193L2.14922 13.9018L1.28271 15.478L10.0458 20.2955ZM10.0629 13.9995C9.3679 14.0104 8.68209 13.8401 8.07301 13.5052L3.25548 22.2683C5.38723 23.4402 7.78757 24.0365 10.2199 23.9983L10.0629 13.9995ZM12.0362 13.443C11.4379 13.7968 10.7578 13.9886 10.0629 13.9995L10.2199 23.9983C12.6523 23.9601 15.0327 23.2887 17.1266 22.0504L12.0362 13.443ZM13.4746 11.9818C13.1302 12.5856 12.6344 13.0892 12.0362 13.443L17.1266 22.0504C19.2205 20.8121 20.9556 19.0495 22.1609 16.9364L13.4746 11.9818ZM14 10C14 10.695 13.8189 11.3781 13.4746 11.9818L22.1609 16.9364C23.3661 14.8233 24 12.4327 24 10H14ZM17.2 15H19V5H17.2V15Z" fill="currentColor" mask="url(#path-2-inside-1_206_12674)"/>
</svg>
